<?xml version="1.0" encoding="UTF-8"?>
<!DOCTYPE svg PUBLIC "-//W3C//DTD SVG 1.1//EN" "http://www.w3.org/Graphics/SVG/1.1/DTD/svg11.dtd">
<svg xmlns="http://www.w3.org/2000/svg" version="1.1" width="7764px" height="7764px" style="shape-rendering:geometricPrecision; text-rendering:geometricPrecision; image-rendering:optimizeQuality; fill-rule:evenodd; clip-rule:evenodd" xmlns:xlink="http://www.w3.org/1999/xlink">
<g><path style="opacity:0.997" fill="#87ceea" d="M 2486.5,2387.5 C 2591.68,2390.82 2671.85,2436.82 2727,2525.5C 2769.97,2604.81 2774.97,2686.47 2742,2770.5C 2700.84,2860.97 2631.34,2915.8 2533.5,2935C 2433.72,2948.41 2349.55,2918.58 2281,2845.5C 2223.81,2776.74 2202.81,2698.07 2218,2609.5C 2238.77,2516.08 2292.6,2449.58 2379.5,2410C 2413.89,2395.76 2449.56,2388.26 2486.5,2387.5 Z"/></g>
<g><path style="opacity:0.993" fill="#87ceea" d="M 2057.5,2744.5 C 2061.64,2746.12 2065.14,2748.79 2068,2752.5C 2212.57,2907.19 2292.41,3090.86 2307.5,3303.5C 2307.17,3304.5 2306.83,3305.5 2306.5,3306.5C 2235.96,3285.48 2171.12,3253.48 2112,3210.5C 2077.3,3060.01 2002.46,2934.01 1887.5,2832.5C 1924.02,2809.4 1962.02,2788.56 2001.5,2770C 2020.31,2761.57 2038.98,2753.07 2057.5,2744.5 Z"/></g>
<g><path style="opacity:0.994" fill="#87ceea" d="M 3170.5,2803.5 C 3220.42,2829.79 3268.09,2859.62 3313.5,2893C 3320.2,2898.34 3326.86,2903.68 3333.5,2909C 3266.43,3137.64 3130.43,3311.97 2925.5,3432C 2731.05,3538.97 2525.05,3569.97 2307.5,3525C 2089.15,3473.48 1914.65,3357.31 1784,3176.5C 1742.96,3117.44 1709.46,3054.1 1683.5,2986.5C 1684.22,2984.27 1685.55,2982.44 1687.5,2981C 1733.77,2938.88 1782.77,2900.38 1834.5,2865.5C 1891.03,3049.87 2003.37,3188.7 2171.5,3282C 2338.56,3368.49 2512.56,3385.82 2693.5,3334C 2855.6,3283.5 2982.77,3187.34 3075,3045.5C 3122.41,2971.11 3154.25,2890.44 3170.5,2803.5 Z"/></g>
<g><path style="opacity:0.997" fill="#87ceea" d="M 1408.5,3078.5 C 1502,3075.69 1578.83,3109.69 1639,3180.5C 1692.78,3250.37 1710.78,3328.7 1693,3415.5C 1665.89,3518.9 1601.39,3586.73 1499.5,3619C 1397.2,3644.01 1307.53,3621.01 1230.5,3550C 1155.52,3469.92 1132.69,3376.76 1162,3270.5C 1194.19,3176.98 1257.69,3116.14 1352.5,3088C 1371.04,3083.19 1389.7,3080.02 1408.5,3078.5 Z"/></g>
<g><path style="opacity:0.992" fill="#87ceea" d="M 2112.5,3489.5 C 2168.24,3514.86 2225.91,3534.86 2285.5,3549.5C 2252.47,3693.41 2187.47,3820.24 2090.5,3930C 2089.5,3930.67 2088.5,3930.67 2087.5,3930C 2041.78,3889.95 1992.44,3854.95 1939.5,3825C 2028.33,3729.85 2086,3618.01 2112.5,3489.5 Z"/></g>
<g><path style="opacity:0.994" fill="#87ceea" d="M 1462.5,3738.5 C 1716.12,3732.83 1933.28,3817.83 2114,3993.5C 2286.06,4170.87 2370.39,4383.87 2367,4632.5C 2360.08,4829.52 2295.08,5004.19 2172,5156.5C 2110.54,5137.08 2051.04,5113.08 1993.5,5084.5C 2138.15,4928.38 2200.65,4743.71 2181,4530.5C 2153.64,4324.83 2056.14,4161.99 1888.5,4042C 1731.17,3936.46 1558.83,3899.8 1371.5,3932C 1337.19,3938.49 1303.52,3947.33 1270.5,3958.5C 1268.67,3894.22 1272.01,3830.22 1280.5,3766.5C 1321.71,3754.91 1363.71,3747.07 1406.5,3743C 1425.3,3741.25 1443.97,3739.75 1462.5,3738.5 Z"/></g>
<g><path style="opacity:0.991" fill="#87ceea" d="M 5128.5,3942.5 C 5207.68,3940.81 5284.01,3954.64 5357.5,3984C 5358.66,4029.43 5358.83,4074.93 5358,4120.5C 5348.5,4109.67 5338.33,4099.5 5327.5,4090C 5311.04,4076.27 5294.04,4063.27 5276.5,4051C 5229.34,4020.36 5177.67,4008.03 5121.5,4014C 5049.44,4025.09 4995.61,4062.25 4960,4125.5C 4914.34,4219.72 4907.34,4316.72 4939,4416.5C 4961.94,4479.11 5003.44,4524.95 5063.5,4554C 5113.92,4574.36 5165.59,4578.03 5218.5,4565C 5228.17,4562.38 5237.84,4559.88 5247.5,4557.5C 5247.67,4495.5 5247.5,4433.5 5247,4371.5C 5242.61,4343.65 5233.44,4317.48 5219.5,4293C 5285.17,4292.33 5350.83,4292.33 5416.5,4293C 5398.58,4320.85 5389.08,4351.35 5388,4384.5C 5387.19,4434.18 5387.52,4483.84 5389,4533.5C 5390.52,4555.93 5395.36,4577.59 5403.5,4598.5C 5371.56,4610.09 5339.23,4620.59 5306.5,4630C 5230.78,4651.47 5153.78,4658.47 5075.5,4651C 4990.9,4642.84 4918.74,4609.01 4859,4549.5C 4809.95,4496.8 4780.62,4434.46 4771,4362.5C 4762.48,4302.95 4766.48,4244.28 4783,4186.5C 4813.16,4098.67 4868.99,4032.51 4950.5,3988C 5006.56,3959.65 5065.89,3944.49 5128.5,3942.5 Z"/></g>
<g><path style="opacity:0.991" fill="#87ceea" d="M 2697.5,3947.5 C 2828.5,3947.33 2959.5,3947.5 3090.5,3948C 3072.38,3988.35 3053.88,4028.52 3035,4068.5C 2981.29,4050.73 2926.12,4041.39 2869.5,4040.5C 2869.5,4108.17 2869.5,4175.83 2869.5,4243.5C 2933.17,4243.17 2996.84,4243.5 3060.5,4244.5C 3040.2,4280.63 3019.7,4316.63 2999,4352.5C 2997.95,4354.63 2996.45,4356.29 2994.5,4357.5C 2954.05,4342.81 2912.38,4333.48 2869.5,4329.5C 2869.5,4405.17 2869.5,4480.83 2869.5,4556.5C 2957.63,4556.03 3043.63,4542.37 3127.5,4515.5C 3107.71,4560.03 3087.04,4604.2 3065.5,4648C 2942.5,4648.83 2819.5,4648.67 2696.5,4647.5C 2713.65,4622.56 2723.15,4594.89 2725,4564.5C 2725.67,4386.17 2725.67,4207.83 2725,4029.5C 2722.7,3999.76 2713.53,3972.43 2697.5,3947.5 Z"/></g>
<g><path style="opacity:0.991" fill="#87ceea" d="M 3149.5,3947.5 C 3202.84,3947.17 3256.17,3947.5 3309.5,3948.5C 3315.26,3975.35 3325.43,4000.35 3340,4023.5C 3439.67,4165.17 3539.33,4306.83 3639,4448.5C 3639.67,4309.5 3639.67,4170.5 3639,4031.5C 3637.71,4001.12 3628.54,3973.46 3611.5,3948.5C 3674.83,3947.17 3738.17,3947.17 3801.5,3948.5C 3787.81,3972.73 3779.65,3998.73 3777,4026.5C 3776.33,4208.17 3776.33,4389.83 3777,4571.5C 3778.27,4597.99 3783.43,4623.66 3792.5,4648.5C 3741.83,4648.83 3691.16,4648.5 3640.5,4647.5C 3539,4501.17 3437.5,4354.83 3336,4208.5C 3335.33,4329.17 3335.33,4449.83 3336,4570.5C 3338.62,4598.18 3347.12,4623.85 3361.5,4647.5C 3297.5,4648.67 3233.5,4648.83 3169.5,4648C 3184.82,4625.24 3193.32,4600.08 3195,4572.5C 3195.67,4392.17 3195.67,4211.83 3195,4031.5C 3179.55,4003.61 3164.39,3975.61 3149.5,3947.5 Z"/></g>
<g><path style="opacity:0.993" fill="#87ceea" d="M 3883.5,3947.5 C 3939.17,3947.33 3994.83,3947.5 4050.5,3948C 4124.45,3950.24 4194.12,3968.57 4259.5,4003C 4361.46,4063.01 4415.96,4152.51 4423,4271.5C 4427.2,4334.44 4417.53,4395.11 4394,4453.5C 4353.37,4540.75 4287.2,4599.25 4195.5,4629C 4164.19,4638.77 4132.19,4645.11 4099.5,4648C 4027.5,4648.83 3955.5,4648.67 3883.5,4647.5C 3901.45,4622.14 3910.95,4593.8 3912,4562.5C 3912.67,4384.83 3912.67,4207.17 3912,4029.5C 3909.54,3999.61 3900.04,3972.28 3883.5,3947.5 Z M 4056.5,4031.5 C 4121.09,4038.21 4174.59,4065.87 4217,4114.5C 4246.87,4154.06 4264.2,4198.73 4269,4248.5C 4275.55,4302.22 4271.89,4355.22 4258,4407.5C 4226.42,4505.56 4159.26,4559.22 4056.5,4568.5C 4056.5,4389.5 4056.5,4210.5 4056.5,4031.5 Z"/></g>
<g><path style="opacity:0.993" fill="#87ceea" d="M 5494.5,3948.5 C 5575.67,3947.33 5657,3947.17 5738.5,3948C 5779.86,3953.23 5818.53,3966.23 5854.5,3987C 5894.57,4014.61 5917.07,4052.78 5922,4101.5C 5924.33,4128.9 5920.99,4155.56 5912,4181.5C 5907.44,4192.97 5901.1,4203.3 5893,4212.5C 5879.8,4226.03 5866.3,4239.2 5852.5,4252C 5839.99,4260.42 5827.66,4269.09 5815.5,4278C 5859.91,4295.31 5896.41,4323.14 5925,4361.5C 5949.92,4402.34 5957.59,4446.34 5948,4493.5C 5937.51,4536.67 5915.68,4572.83 5882.5,4602C 5846.66,4627.84 5806.66,4642.84 5762.5,4647C 5672.51,4648.62 5582.51,4648.96 5492.5,4648C 5508.08,4619.87 5516.91,4589.71 5519,4557.5C 5519.67,4383.83 5519.67,4210.17 5519,4036.5C 5517.66,4005.14 5509.5,3975.81 5494.5,3948.5 Z M 5663.5,4031.5 C 5724.34,4026.2 5762.84,4052.87 5779,4111.5C 5783.13,4134.14 5781.8,4156.48 5775,4178.5C 5770.11,4201.12 5758.94,4219.95 5741.5,4235C 5718.98,4253.79 5692.98,4263.62 5663.5,4264.5C 5663.5,4186.83 5663.5,4109.17 5663.5,4031.5 Z M 5663.5,4294.5 C 5698.89,4293.26 5731.22,4302.43 5760.5,4322C 5771.22,4330.95 5779.39,4341.79 5785,4354.5C 5796.24,4385.06 5802.74,4416.56 5804.5,4449C 5805.04,4503.32 5780.37,4540.65 5730.5,4561C 5708.76,4568.59 5686.59,4570.43 5664,4566.5C 5663.5,4475.83 5663.33,4385.17 5663.5,4294.5 Z"/></g>
<g><path style="opacity:0.992" fill="#87ceea" d="M 5928.5,3948.5 C 5997,3947.5 6065.66,3947.17 6134.5,3947.5C 6129.52,3965.59 6128.35,3983.92 6131,4002.5C 6132.7,4013.3 6135.03,4023.97 6138,4034.5C 6184.47,4175.56 6231.13,4316.56 6278,4457.5C 6327,4317.83 6376,4178.17 6425,4038.5C 6432.24,4018.09 6435.24,3997.09 6434,3975.5C 6432.16,3966.15 6430.33,3956.82 6428.5,3947.5C 6490.17,3947.17 6551.84,3947.5 6613.5,3948.5C 6580.58,3974.27 6557.08,4006.94 6543,4046.5C 6474.39,4246.73 6406.05,4447.06 6338,4647.5C 6314.24,4648.16 6290.4,4648.5 6266.5,4648.5C 6242.45,4648.5 6218.62,4647.83 6195,4646.5C 6129.86,4444.09 6064.53,4241.76 5999,4039.5C 5991.86,4018.89 5981.86,3999.89 5969,3982.5C 5957.43,3968.76 5943.93,3957.42 5928.5,3948.5 Z"/></g>
<g><path style="opacity:0.993" fill="#87ceea" d="M 1710.5,3984.5 C 1780.77,4008.29 1844.77,4042.96 1902.5,4088.5C 1784.48,4163.67 1655.48,4207.51 1515.5,4220C 1461.14,4224.83 1406.8,4224.5 1352.5,4219C 1335.31,4217.56 1318.31,4215.06 1301.5,4211.5C 1287.22,4148.9 1277.89,4085.57 1273.5,4021.5C 1408.96,4053.65 1542.29,4046.48 1673.5,4000C 1686.22,3995.49 1698.55,3990.32 1710.5,3984.5 Z"/></g>
<g><path style="opacity:0.997" fill="#87ceea" d="M 1466.5,4345.5 C 1571.26,4340.09 1654.76,4379.09 1717,4462.5C 1769.57,4542.93 1779.9,4628.6 1748,4719.5C 1709.08,4812.56 1640.24,4869.73 1541.5,4891C 1439.15,4906.89 1352.98,4877.05 1283,4801.5C 1219.02,4723.28 1200.69,4635.28 1228,4537.5C 1258.9,4447.6 1319.4,4387.43 1409.5,4357C 1428.29,4351.43 1447.29,4347.59 1466.5,4345.5 Z"/></g>
<g><path style="opacity:0.964" fill="#87ceea" d="M 5816.5,4864.5 C 5825.83,4864.5 5835.17,4864.5 5844.5,4864.5C 5844.5,4882.17 5844.5,4899.83 5844.5,4917.5C 5835.17,4917.5 5825.83,4917.5 5816.5,4917.5C 5816.5,4899.83 5816.5,4882.17 5816.5,4864.5 Z"/></g>
<g><path style="opacity:0.967" fill="#87ceea" d="M 3965.5,4879.5 C 3998.04,4876.84 4029.37,4881.67 4059.5,4894C 4100.56,4914.25 4124.56,4947.08 4131.5,4992.5C 4121.48,4992.83 4111.48,4992.5 4101.5,4991.5C 4087.98,4944.81 4057.31,4917.31 4009.5,4909C 3931.8,4898.9 3880.63,4930.74 3856,5004.5C 3842.23,5054.6 3843.56,5104.27 3860,5153.5C 3878.52,5203.68 3914.35,5231.85 3967.5,5238C 4047.44,5242.73 4090.94,5205.23 4098,5125.5C 4099.1,5113.86 4099.6,5102.19 4099.5,5090.5C 4058.83,5090.5 4018.17,5090.5 3977.5,5090.5C 3977.5,5081.17 3977.5,5071.83 3977.5,5062.5C 4027.83,5062.5 4078.17,5062.5 4128.5,5062.5C 4128.5,5129.17 4128.5,5195.83 4128.5,5262.5C 4119.91,5262.82 4111.41,5262.48 4103,5261.5C 4101.94,5256.9 4101.27,5252.23 4101,5247.5C 4100.3,5233.17 4099.64,5218.83 4099,5204.5C 4077.94,5241.14 4046.11,5261.31 4003.5,5265C 3961.02,5270.82 3921.69,5262.48 3885.5,5240C 3854.98,5216.84 3834.48,5186.67 3824,5149.5C 3810.81,5097.99 3811.48,5046.65 3826,4995.5C 3847.95,4927.03 3894.45,4888.36 3965.5,4879.5 Z"/></g>
<g><path style="opacity:0.97" fill="#87ceea" d="M 2696.5,4884.5 C 2772.83,4884.5 2849.17,4884.5 2925.5,4884.5C 2925.5,4893.83 2925.5,4903.17 2925.5,4912.5C 2859.17,4912.5 2792.83,4912.5 2726.5,4912.5C 2726.5,4959.5 2726.5,5006.5 2726.5,5053.5C 2788.83,5053.5 2851.17,5053.5 2913.5,5053.5C 2913.5,5062.83 2913.5,5072.17 2913.5,5081.5C 2851.17,5081.5 2788.83,5081.5 2726.5,5081.5C 2726.5,5141.83 2726.5,5202.17 2726.5,5262.5C 2716.5,5262.5 2706.5,5262.5 2696.5,5262.5C 2696.5,5136.5 2696.5,5010.5 2696.5,4884.5 Z"/></g>
<g><path style="opacity:0.966" fill="#87ceea" d="M 4224.5,4884.5 C 4272.83,4884.33 4321.17,4884.5 4369.5,4885C 4399.05,4886.04 4424.55,4896.54 4446,4916.5C 4468.96,4946.25 4473.96,4978.91 4461,5014.5C 4451.52,5037.31 4435.02,5052.48 4411.5,5060C 4464.01,5079.15 4486.84,5116.65 4480,5172.5C 4474.13,5209.7 4453.96,5235.87 4419.5,5251C 4401.53,5258.11 4382.86,5261.77 4363.5,5262C 4317.17,5262.5 4270.83,5262.67 4224.5,5262.5C 4224.5,5136.5 4224.5,5010.5 4224.5,4884.5 Z M 4254.5,4912.5 C 4292.83,4912.33 4331.17,4912.5 4369.5,4913C 4421.83,4920.67 4442.99,4950.5 4433,5002.5C 4426.93,5020.24 4415.09,5032.41 4397.5,5039C 4385.83,5043 4373.83,5045.33 4361.5,5046C 4325.83,5046.5 4290.17,5046.67 4254.5,5046.5C 4254.5,5001.83 4254.5,4957.17 4254.5,4912.5 Z M 4254.5,5074.5 C 4290.17,5074.33 4325.83,5074.5 4361.5,5075C 4384.07,5076.08 4404.73,5082.75 4423.5,5095C 4441.83,5110.5 4450.83,5130.33 4450.5,5154.5C 4449.14,5195.69 4428.48,5221.19 4388.5,5231C 4381.26,5232.65 4373.92,5233.65 4366.5,5234C 4329.17,5234.5 4291.83,5234.67 4254.5,5234.5C 4254.5,5181.17 4254.5,5127.83 4254.5,5074.5 Z"/></g>
<g><path style="opacity:0.966" fill="#87ceea" d="M 4511.5,4885.5 C 4516.82,4884.83 4522.32,4884.5 4528,4884.5C 4533.91,4884.53 4539.58,4885.19 4545,4886.5C 4578.33,4976.5 4611.67,5066.5 4645,5156.5C 4654.14,5181.92 4662.47,5207.59 4670,5233.5C 4675.1,5216.63 4680.77,5199.97 4687,5183.5C 4724.67,5084.5 4762.33,4985.5 4800,4886.5C 4805.25,4885.19 4810.75,4884.53 4816.5,4884.5C 4821.83,4884.83 4827.17,4885.17 4832.5,4885.5C 4784.24,5010.46 4736.07,5135.46 4688,5260.5C 4676.08,5262.47 4663.92,5263.13 4651.5,5262.5C 4605.21,5136.62 4558.54,5010.95 4511.5,4885.5 Z"/></g>
<g><path style="opacity:0.974" fill="#87ceea" d="M 6215.5,4908.5 C 6224.83,4908.5 6234.17,4908.5 6243.5,4908.5C 6243.5,4936.5 6243.5,4964.5 6243.5,4992.5C 6264.83,4992.5 6286.17,4992.5 6307.5,4992.5C 6307.5,5001.17 6307.5,5009.83 6307.5,5018.5C 6286.17,5018.5 6264.83,5018.5 6243.5,5018.5C 6243.33,5080.5 6243.5,5142.5 6244,5204.5C 6244.26,5213.95 6246.93,5222.61 6252,5230.5C 6259.3,5237.27 6267.97,5240.27 6278,5239.5C 6286.61,5239.28 6295.11,5238.28 6303.5,5236.5C 6303.83,5244.86 6303.5,5253.19 6302.5,5261.5C 6292.59,5264.65 6282.42,5265.99 6272,5265.5C 6236.51,5267.01 6217.85,5250.01 6216,5214.5C 6215.5,5149.17 6215.33,5083.83 6215.5,5018.5C 6198.83,5018.5 6182.17,5018.5 6165.5,5018.5C 6165.5,5009.83 6165.5,5001.17 6165.5,4992.5C 6182.17,4992.5 6198.83,4992.5 6215.5,4992.5C 6215.5,4964.5 6215.5,4936.5 6215.5,4908.5 Z"/></g>
<g><path style="opacity:0.979" fill="#87ceea" d="M 3091.5,4985.5 C 3093.5,4985.5 3095.5,4985.5 3097.5,4985.5C 3097.5,4995.5 3097.5,5005.5 3097.5,5015.5C 3046.91,5020.6 3016.41,5047.93 3006,5097.5C 3004.96,5104.13 3004.29,5110.79 3004,5117.5C 3003.5,5165.83 3003.33,5214.17 3003.5,5262.5C 2994.5,5262.5 2985.5,5262.5 2976.5,5262.5C 2976.65,5172.5 2976.32,5082.5 2975.5,4992.5C 2984.52,4992.17 2993.52,4992.5 3002.5,4993.5C 3003.32,5012.12 3003.82,5030.79 3004,5049.5C 3020.95,5011.44 3050.12,4990.11 3091.5,4985.5 Z"/></g>
<g><path style="opacity:0.973" fill="#87ceea" d="M 3232.5,4985.5 C 3295.4,4984.24 3333.9,5014.24 3348,5075.5C 3351.41,5093.73 3352.24,5112.07 3350.5,5130.5C 3284.5,5130.5 3218.5,5130.5 3152.5,5130.5C 3152.09,5161.56 3160.92,5189.56 3179,5214.5C 3199.94,5237.26 3225.77,5246.09 3256.5,5241C 3285.78,5236.05 3305.78,5219.72 3316.5,5192C 3325.83,5191.5 3335.16,5191.33 3344.5,5191.5C 3328.41,5242.84 3293.24,5268.5 3239,5268.5C 3187.34,5267.67 3152.67,5243.01 3135,5194.5C 3120.75,5149.73 3121.09,5105.06 3136,5060.5C 3152.74,5015.41 3184.91,4990.41 3232.5,4985.5 Z M 3238.5,5011.5 C 3278.43,5012.88 3304.6,5032.55 3317,5070.5C 3320.46,5082.25 3322.29,5094.25 3322.5,5106.5C 3266.5,5106.5 3210.5,5106.5 3154.5,5106.5C 3156.3,5081.94 3164.13,5059.61 3178,5039.5C 3194.08,5021.2 3214.24,5011.87 3238.5,5011.5 Z"/></g>
<g><path style="opacity:0.973" fill="#87ceea" d="M 3504.5,4985.5 C 3564.43,4983.28 3602.6,5010.94 3619,5068.5C 3620.76,5075.75 3622.1,5083.09 3623,5090.5C 3623.5,5103.83 3623.67,5117.16 3623.5,5130.5C 3557.5,5130.5 3491.5,5130.5 3425.5,5130.5C 3425.01,5160.55 3433.17,5187.88 3450,5212.5C 3472.7,5238.07 3500.87,5247.23 3534.5,5240C 3561.52,5233.81 3579.52,5217.65 3588.5,5191.5C 3598.17,5191.5 3607.83,5191.5 3617.5,5191.5C 3603.31,5237.28 3572.31,5262.78 3524.5,5268C 3463.29,5271.99 3423.46,5244.82 3405,5186.5C 3395.78,5150.67 3395.12,5114.67 3403,5078.5C 3411.06,5043.48 3430.23,5016.65 3460.5,4998C 3474.56,4991.25 3489.23,4987.08 3504.5,4985.5 Z M 3511.5,5011.5 C 3557.62,5014.44 3584.78,5038.77 3593,5084.5C 3593.86,5091.72 3594.69,5098.88 3595.5,5106C 3539.5,5106.5 3483.5,5106.67 3427.5,5106.5C 3428.95,5079.96 3437.79,5056.3 3454,5035.5C 3470,5019.78 3489.16,5011.78 3511.5,5011.5 Z"/></g>
<g><path style="opacity:0.965" fill="#87ceea" d="M 5085.5,4985.5 C 5111.51,4983.5 5135.51,4989.34 5157.5,5003C 5176.77,5017.78 5187.77,5037.28 5190.5,5061.5C 5181.14,5061.83 5171.81,5061.5 5162.5,5060.5C 5154.4,5031.57 5135.4,5015.4 5105.5,5012C 5087.24,5009.89 5069.91,5012.89 5053.5,5021C 5037.42,5033.02 5031.92,5048.86 5037,5068.5C 5039.22,5075.1 5043.05,5080.6 5048.5,5085C 5054.39,5089.11 5060.72,5092.45 5067.5,5095C 5085.94,5101.15 5104.6,5106.48 5123.5,5111C 5141.55,5116.34 5158.21,5124.34 5173.5,5135C 5185.47,5145.1 5192.64,5157.94 5195,5173.5C 5200.36,5220.3 5180.52,5250.46 5135.5,5264C 5107.54,5270.74 5079.87,5269.74 5052.5,5261C 5019.17,5247.2 5000.17,5222.37 4995.5,5186.5C 5004.84,5186.33 5014.17,5186.5 5023.5,5187C 5032.51,5219.01 5053.51,5237.35 5086.5,5242C 5103.21,5243.78 5119.54,5242.11 5135.5,5237C 5159.23,5226.57 5169.4,5208.4 5166,5182.5C 5164.34,5168.35 5157.51,5157.51 5145.5,5150C 5139.29,5146.73 5132.95,5143.73 5126.5,5141C 5105.54,5134.84 5084.54,5128.84 5063.5,5123C 5045.34,5117.68 5029.84,5108.18 5017,5094.5C 5005.11,5074.03 5003.44,5052.69 5012,5030.5C 5023.9,5006.77 5043.07,4992.6 5069.5,4988C 5074.99,4987.23 5080.32,4986.39 5085.5,4985.5 Z"/></g>
<g><path style="opacity:0.967" fill="#87ceea" d="M 5351.5,4985.5 C 5418.98,4985.15 5460.48,5017.82 5476,5083.5C 5484.04,5121.3 5481.38,5158.3 5468,5194.5C 5444.59,5246.97 5404.09,5271.47 5346.5,5268C 5302.6,5262.76 5271.77,5239.93 5254,5199.5C 5239.92,5163.17 5236.59,5125.83 5244,5087.5C 5251.21,5049.87 5270.71,5020.7 5302.5,5000C 5317.99,4991.88 5334.33,4987.05 5351.5,4985.5 Z M 5357.5,5011.5 C 5393.04,5012.35 5419.21,5028.35 5436,5059.5C 5448.76,5087.14 5453.43,5116.14 5450,5146.5C 5447.89,5175.86 5436.73,5201.03 5416.5,5222C 5389.86,5242.82 5360.52,5247.48 5328.5,5236C 5302.35,5223.51 5285.18,5203.35 5277,5175.5C 5265.81,5137.25 5267.48,5099.58 5282,5062.5C 5297.02,5030.41 5322.19,5013.41 5357.5,5011.5 Z"/></g>
<g><path style="opacity:0.964" fill="#87ceea" d="M 5637.5,4985.5 C 5673.22,4982.57 5703.06,4994.23 5727,5020.5C 5738.75,5035.9 5745.91,5053.23 5748.5,5072.5C 5738.83,5072.5 5729.17,5072.5 5719.5,5072.5C 5710.19,5033.92 5685.69,5013.59 5646,5011.5C 5607.11,5013.77 5580.78,5033.11 5567,5069.5C 5554.33,5107.83 5554.33,5146.17 5567,5184.5C 5586.49,5232.16 5621.33,5250 5671.5,5238C 5696.72,5227.08 5712.72,5208.25 5719.5,5181.5C 5729.17,5181.5 5738.83,5181.5 5748.5,5181.5C 5730.05,5248.41 5686.39,5276.57 5617.5,5266C 5578,5256.17 5551.5,5232.01 5538,5193.5C 5524.04,5150.83 5524.04,5108.16 5538,5065.5C 5554.78,5018.2 5587.95,4991.53 5637.5,4985.5 Z"/></g>
<g><path style="opacity:0.972" fill="#87ceea" d="M 6017.5,4985.5 C 6079.21,4983.92 6117.71,5012.92 6133,5072.5C 6137.05,5091.66 6138.22,5111 6136.5,5130.5C 6070.5,5130.5 6004.5,5130.5 5938.5,5130.5C 5938.08,5161.06 5946.58,5188.73 5964,5213.5C 5986.6,5238.37 6014.43,5247.2 6047.5,5240C 6063.3,5237.02 6076.47,5229.52 6087,5217.5C 6092.96,5209.53 6098.13,5201.03 6102.5,5192C 6111.83,5191.5 6121.16,5191.33 6130.5,5191.5C 6118.01,5234.49 6089.68,5259.65 6045.5,5267C 5978.81,5274.96 5935.98,5246.8 5917,5182.5C 5910.43,5155.49 5908.77,5128.15 5912,5100.5C 5915.41,5070.03 5926.75,5043.03 5946,5019.5C 5965.71,4999.39 5989.54,4988.06 6017.5,4985.5 Z M 6024.5,5011.5 C 6064.67,5013.17 6090.84,5033.17 6103,5071.5C 6106.13,5082.97 6107.97,5094.64 6108.5,5106.5C 6052.5,5106.5 5996.5,5106.5 5940.5,5106.5C 5942.12,5086.36 5947.62,5067.36 5957,5049.5C 5972.62,5024.77 5995.12,5012.1 6024.5,5011.5 Z"/></g>
<g><path style="opacity:0.971" fill="#87ceea" d="M 5816.5,4992.5 C 5825.83,4992.5 5835.17,4992.5 5844.5,4992.5C 5844.5,5082.5 5844.5,5172.5 5844.5,5262.5C 5835.17,5262.5 5825.83,5262.5 5816.5,5262.5C 5816.5,5172.5 5816.5,5082.5 5816.5,4992.5 Z"/></g>
<g><path style="opacity:0.966" fill="#87ceea" d="M 6340.5,4993.5 C 6350.9,4992.17 6361.4,4992.17 6372,4993.5C 6400.74,5074.55 6429.57,5155.55 6458.5,5236.5C 6486.1,5155.36 6514.1,5074.36 6542.5,4993.5C 6552.17,4992.17 6561.83,4992.17 6571.5,4993.5C 6534.02,5100.1 6495.86,5206.43 6457,5312.5C 6450.46,5329.09 6441.3,5343.93 6429.5,5357C 6418.84,5366.99 6406.18,5372.66 6391.5,5374C 6377.15,5374.74 6362.81,5374.58 6348.5,5373.5C 6348.5,5364.17 6348.5,5354.83 6348.5,5345.5C 6365.39,5348.84 6382.06,5348.01 6398.5,5343C 6411,5337.17 6420.17,5328 6426,5315.5C 6432.8,5301.73 6438.63,5287.57 6443.5,5273C 6409.43,5179.62 6375.1,5086.45 6340.5,4993.5 Z"/></g>
</svg>
